<svg xmlns="http://www.w3.org/2000/svg" width="500" height="500" aria-label="Velune logo" role="img" viewBox="69 64 363 363"><defs><linearGradient id="bgGradient" x1="0" x2="1" y1="0" y2="1"><stop offset="0%" stop-color="#d7ebff"/><stop offset="100%" stop-color="#b8d8fb"/></linearGradient><linearGradient id="moonGradient" x1=".2" x2=".85" y1=".1" y2=".9"><stop offset="0%" stop-color="#f7d6e0"/><stop offset="100%" stop-color="#efbfd1"/></linearGradient><linearGradient id="cloudGradient" x1=".3" x2=".7" y1="0" y2="1"><stop offset="0%" stop-color="#fff5e8"/><stop offset="100%" stop-color="#f8ebd9"/></linearGradient><filter id="tileShadow" width="140%" height="160%" x="-20%" y="-20%"><feDropShadow dx="0" dy="7" flood-color="#7da6d3" flood-opacity=".36" stdDeviation="8"/></filter><filter id="shapeShadow" width="150%" height="160%" x="-25%" y="-25%"><feDropShadow dx="0" dy="4" flood-color="#8b7e8d" flood-opacity=".24" stdDeviation="4"/></filter><filter id="cloudShadow" width="150%" height="160%" x="-25%" y="-25%"><feDropShadow dx="0" dy="4" flood-color="#8e969f" flood-opacity=".28" stdDeviation="4"/></filter></defs><rect width="347" height="363" x="77" y="64" fill="url(#bgGradient)" filter="url(#tileShadow)" rx="80"/><rect width="345.4" height="361.4" x="77.8" y="64.8" fill="none" stroke="#e6f3ff" stroke-width="1.6" opacity=".9" rx="79.2"/><path fill="url(#moonGradient)" fill-rule="evenodd" d="M208 104 C297 96 365 161 378 234 C394 323 334 389 248 392 C193 394 145 370 120 325 C163 340 210 339 252 313 C292 289 311 245 303 204 C295 161 257 122 208 104 Z" filter="url(#shapeShadow)"/><path fill="none" stroke="#f9e1e8" stroke-width="2.3" d="M209 105 C296 98 364 162 377 234" opacity=".76"/><path fill="none" stroke="#e7adc3" stroke-width="2.1" d="M120 325 C163 340 210 339 252 313" opacity=".65"/><g opacity=".72"><circle cx="331" cy="163" r="9.3" fill="none" stroke="#e5a8bf" stroke-width="1.8"/><circle cx="351" cy="191" r="2.7" fill="none" stroke="#e5a8bf" stroke-width="1.5"/><circle cx="310" cy="141" r="2.1" fill="none" stroke="#e5a8bf" stroke-width="1.4"/><circle cx="316" cy="341" r="4.3" fill="none" stroke="#e5a8bf" stroke-width="1.6"/><circle cx="279" cy="360" r="8.6" fill="none" stroke="#e5a8bf" stroke-width="1.8"/></g><path fill="url(#cloudGradient)" d="M155 313 C136 313 121 297 121 278 C121 253 141 236 164 236 C168 236 172 237 176 239 C181 202 212 176 246 176 C270 176 290 188 299 208 C303 206 308 205 313 205 C330 205 344 217 340 236 C349 235 360 240 368 249 C374 256 377 266 377 278 C377 298 360 313 342 313 Z" filter="url(#cloudShadow)"/><path fill="none" stroke="#fff9f1" stroke-width="2.2" d="M155 313 C136 313 121 297 121 278 C121 253 141 236 164 236 C168 236 172 237 176 239 C181 202 212 176 246 176 C270 176 290 188 299 208 C303 206 308 205 313 205 C330 205 344 217 340 236" opacity=".86"/><g fill="none" stroke="#aca3a7" stroke-linecap="round" stroke-width="3.2" opacity=".95"><path d="M184 243 H270"/><path d="M285 243 H318"/><path d="M184 257 H240"/><path d="M257 257 H319"/><path d="M184 271 H263"/><path d="M278 271 H317"/><path d="M252 286 H317"/></g></svg>